<?xml version="1.0" encoding="UTF-8"?> <svg xmlns="http://www.w3.org/2000/svg" width="24" height="24" viewBox="0 0 24 24" fill="none"> <path fill-rule="evenodd" clip-rule="evenodd" d="M3.94937 1.94937C4.49322 1.40551 5.23085 1.09998 5.99998 1.09998H14.5C14.7387 1.09998 14.9676 1.1948 15.1364 1.36358L20.6364 6.86358C20.8052 7.03236 20.9 7.26128 20.9 7.49998V20C20.9 20.7691 20.5944 21.5067 20.0506 22.0506C19.5067 22.5944 18.7691 22.9 18 22.9H5.99998C5.23085 22.9 4.49322 22.5944 3.94937 22.0506C3.40551 21.5067 3.09998 20.7691 3.09998 20V3.99998C3.09998 3.23085 3.40551 2.49322 3.94937 1.94937ZM5.99998 2.89998C5.70824 2.89998 5.42845 3.01587 5.22216 3.22216C5.01587 3.42845 4.89998 3.70824 4.89998 3.99998V20C4.89998 20.2917 5.01587 20.5715 5.22216 20.7778C5.42845 20.9841 5.70824 21.1 5.99998 21.1H18C18.2917 21.1 18.5715 20.9841 18.7778 20.7778C18.9841 20.5715 19.1 20.2917 19.1 20V8.39998H14.5C14.0029 8.39998 13.6 7.99703 13.6 7.49998V2.89998H5.99998ZM15.4 4.17277L17.8272 6.59998H15.4V4.17277ZM12 11.1C12.497 11.1 12.9 11.5029 12.9 12V15.8272L14.3636 14.3636C14.7151 14.0121 15.2849 14.0121 15.6364 14.3636C15.9878 14.7151 15.9878 15.2849 15.6364 15.6364L12.6364 18.6364C12.2849 18.9878 11.7151 18.9878 11.3636 18.6364L8.36358 15.6364C8.01211 15.2849 8.01211 14.7151 8.36358 14.3636C8.71505 14.0121 9.2849 14.0121 9.63637 14.3636L11.1 15.8272V12C11.1 11.5029 11.5029 11.1 12 11.1Z" fill="#004DF1"></path> </svg> 